{
  "asset": {
    "version": "2.0",
    "generator": "AETHER-01 Asset Foundry 1.0"
  },
  "scene": 0,
  "scenes": [
    {
      "nodes": [
        0
      ]
    }
  ],
  "nodes": [
    {
      "name": "Kael | gameplay root",
      "children": [
        1,
        2,
        3,
        4,
        5,
        6,
        7,
        8,
        9,
        10,
        11,
        12,
        13,
        14,
        15,
        16,
        17,
        18,
        19,
        20,
        21,
        22,
        23,
        24,
        25,
        26,
        27,
        28,
        29,
        30,
        31,
        32,
        33,
        34,
        35,
        36,
        37,
        38,
        39,
        40,
        41,
        42,
        43,
        44,
        45,
        46,
        47,
        48,
        49,
        50,
        51,
        52,
        53
      ],
      "translation": [
        0,
        0.16,
        0
      ],
      "scale": [
        0.84,
        0.83,
        0.84
      ]
    },
    {
      "name": "Torso pressure suit",
      "mesh": 0
    },
    {
      "name": "Chest cuirass",
      "mesh": 1
    },
    {
      "name": "Abdominal flex",
      "mesh": 2
    },
    {
      "name": "Pelvis harness",
      "mesh": 3
    },
    {
      "name": "Backplate",
      "mesh": 4
    },
    {
      "name": "Life-support pack",
      "mesh": 5
    },
    {
      "name": "Pack top beacon",
      "mesh": 6
    },
    {
      "name": "Rib inlay 0",
      "mesh": 7
    },
    {
      "name": "Rib inlay 1",
      "mesh": 8
    },
    {
      "name": "Rib inlay 2",
      "mesh": 9
    },
    {
      "name": "AETHER chest mark",
      "mesh": 10
    },
    {
      "name": "Helmet shell",
      "mesh": 11
    },
    {
      "name": "Faceplate",
      "mesh": 12
    },
    {
      "name": "Left comms pod",
      "mesh": 13
    },
    {
      "name": "Right comms pod",
      "mesh": 14
    },
    {
      "name": "Optic left",
      "mesh": 15
    },
    {
      "name": "Optic right",
      "mesh": 16
    },
    {
      "name": "Helmet crown stripe",
      "mesh": 17
    },
    {
      "name": "L Shoulder pauldron",
      "mesh": 18
    },
    {
      "name": "L Shoulder outer shell",
      "mesh": 19
    },
    {
      "name": "L Upper arm",
      "mesh": 20
    },
    {
      "name": "L Elbow guard",
      "mesh": 21
    },
    {
      "name": "L Forearm bracer",
      "mesh": 22
    },
    {
      "name": "L Glove",
      "mesh": 23
    },
    {
      "name": "L Wrist light",
      "mesh": 24
    },
    {
      "name": "L vambrace panel",
      "mesh": 25
    },
    {
      "name": "R Shoulder pauldron",
      "mesh": 26
    },
    {
      "name": "R Shoulder outer shell",
      "mesh": 27
    },
    {
      "name": "R Upper arm",
      "mesh": 28
    },
    {
      "name": "R Elbow guard",
      "mesh": 29
    },
    {
      "name": "R Forearm bracer",
      "mesh": 30
    },
    {
      "name": "R Glove",
      "mesh": 31
    },
    {
      "name": "R Wrist light",
      "mesh": 32
    },
    {
      "name": "R vambrace panel",
      "mesh": 33
    },
    {
      "name": "L Thigh undersuit",
      "mesh": 34
    },
    {
      "name": "L Thigh plate",
      "mesh": 35
    },
    {
      "name": "L Knee cup",
      "mesh": 36
    },
    {
      "name": "L Shin greave",
      "mesh": 37
    },
    {
      "name": "L Boot",
      "mesh": 38
    },
    {
      "name": "L Boot toe cap",
      "mesh": 39
    },
    {
      "name": "L thigh ID",
      "mesh": 40
    },
    {
      "name": "R Thigh undersuit",
      "mesh": 41
    },
    {
      "name": "R Thigh plate",
      "mesh": 42
    },
    {
      "name": "R Knee cup",
      "mesh": 43
    },
    {
      "name": "R Shin greave",
      "mesh": 44
    },
    {
      "name": "R Boot",
      "mesh": 45
    },
    {
      "name": "R Boot toe cap",
      "mesh": 46
    },
    {
      "name": "R thigh ID",
      "mesh": 47
    },
    {
      "name": "Hip utility pouch",
      "mesh": 48
    },
    {
      "name": "Pouch amber clasp",
      "mesh": 49
    },
    {
      "name": "Hip utility pouch",
      "mesh": 50
    },
    {
      "name": "Pouch amber clasp",
      "mesh": 51
    },
    {
      "name": "Pack antenna",
      "mesh": 52
    }
  ],
  "meshes": [
    {
      "name": "Torso pressure suit",
      "primitives": [
        {
          "attributes": {
            "POSITION": 0,
            "NORMAL": 1
          },
          "indices": 2,
          "material": 0,
          "mode": 4
        }
      ]
    },
    {
      "name": "Chest cuirass",
      "primitives": [
        {
          "attributes": {
            "POSITION": 3,
            "NORMAL": 4
          },
          "indices": 5,
          "material": 1,
          "mode": 4
        }
      ]
    },
    {
      "name": "Abdominal flex",
      "primitives": [
        {
          "attributes": {
            "POSITION": 6,
            "NORMAL": 7
          },
          "indices": 8,
          "material": 5,
          "mode": 4
        }
      ]
    },
    {
      "name": "Pelvis harness",
      "primitives": [
        {
          "attributes": {
            "POSITION": 9,
            "NORMAL": 10
          },
          "indices": 11,
          "material": 0,
          "mode": 4
        }
      ]
    },
    {
      "name": "Backplate",
      "primitives": [
        {
          "attributes": {
            "POSITION": 12,
            "NORMAL": 13
          },
          "indices": 14,
          "material": 2,
          "mode": 4
        }
      ]
    },
    {
      "name": "Life-support pack",
      "primitives": [
        {
          "attributes": {
            "POSITION": 15,
            "NORMAL": 16
          },
          "indices": 17,
          "material": 1,
          "mode": 4
        }
      ]
    },
    {
      "name": "Pack top beacon",
      "primitives": [
        {
          "attributes": {
            "POSITION": 18,
            "NORMAL": 19
          },
          "indices": 20,
          "material": 3,
          "mode": 4
        }
      ]
    },
    {
      "name": "Rib inlay 0",
      "primitives": [
        {
          "attributes": {
            "POSITION": 21,
            "NORMAL": 22
          },
          "indices": 23,
          "material": 2,
          "mode": 4
        }
      ]
    },
    {
      "name": "Rib inlay 1",
      "primitives": [
        {
          "attributes": {
            "POSITION": 24,
            "NORMAL": 25
          },
          "indices": 26,
          "material": 2,
          "mode": 4
        }
      ]
    },
    {
      "name": "Rib inlay 2",
      "primitives": [
        {
          "attributes": {
            "POSITION": 27,
            "NORMAL": 28
          },
          "indices": 29,
          "material": 2,
          "mode": 4
        }
      ]
    },
    {
      "name": "AETHER chest mark",
      "primitives": [
        {
          "attributes": {
            "POSITION": 30,
            "NORMAL": 31
          },
          "indices": 32,
          "material": 3,
          "mode": 4
        }
      ]
    },
    {
      "name": "Helmet shell",
      "primitives": [
        {
          "attributes": {
            "POSITION": 33,
            "NORMAL": 34
          },
          "indices": 35,
          "material": 1,
          "mode": 4
        }
      ]
    },
    {
      "name": "Faceplate",
      "primitives": [
        {
          "attributes": {
            "POSITION": 36,
            "NORMAL": 37
          },
          "indices": 38,
          "material": 4,
          "mode": 4
        }
      ]
    },
    {
      "name": "Left comms pod",
      "primitives": [
        {
          "attributes": {
            "POSITION": 39,
            "NORMAL": 40
          },
          "indices": 41,
          "material": 2,
          "mode": 4
        }
      ]
    },
    {
      "name": "Right comms pod",
      "primitives": [
        {
          "attributes": {
            "POSITION": 42,
            "NORMAL": 43
          },
          "indices": 44,
          "material": 2,
          "mode": 4
        }
      ]
    },
    {
      "name": "Optic left",
      "primitives": [
        {
          "attributes": {
            "POSITION": 45,
            "NORMAL": 46
          },
          "indices": 47,
          "material": 3,
          "mode": 4
        }
      ]
    },
    {
      "name": "Optic right",
      "primitives": [
        {
          "attributes": {
            "POSITION": 48,
            "NORMAL": 49
          },
          "indices": 50,
          "material": 3,
          "mode": 4
        }
      ]
    },
    {
      "name": "Helmet crown stripe",
      "primitives": [
        {
          "attributes": {
            "POSITION": 51,
            "NORMAL": 52
          },
          "indices": 53,
          "material": 2,
          "mode": 4
        }
      ]
    },
    {
      "name": "L Shoulder pauldron",
      "primitives": [
        {
          "attributes": {
            "POSITION": 54,
            "NORMAL": 55
          },
          "indices": 56,
          "material": 2,
          "mode": 4
        }
      ]
    },
    {
      "name": "L Shoulder outer shell",
      "primitives": [
        {
          "attributes": {
            "POSITION": 57,
            "NORMAL": 58
          },
          "indices": 59,
          "material": 1,
          "mode": 4
        }
      ]
    },
    {
      "name": "L Upper arm",
      "primitives": [
        {
          "attributes": {
            "POSITION": 60,
            "NORMAL": 61
          },
          "indices": 62,
          "material": 0,
          "mode": 4
        }
      ]
    },
    {
      "name": "L Elbow guard",
      "primitives": [
        {
          "attributes": {
            "POSITION": 63,
            "NORMAL": 64
          },
          "indices": 65,
          "material": 2,
          "mode": 4
        }
      ]
    },
    {
      "name": "L Forearm bracer",
      "primitives": [
        {
          "attributes": {
            "POSITION": 66,
            "NORMAL": 67
          },
          "indices": 68,
          "material": 1,
          "mode": 4
        }
      ]
    },
    {
      "name": "L Glove",
      "primitives": [
        {
          "attributes": {
            "POSITION": 69,
            "NORMAL": 70
          },
          "indices": 71,
          "material": 5,
          "mode": 4
        }
      ]
    },
    {
      "name": "L Wrist light",
      "primitives": [
        {
          "attributes": {
            "POSITION": 72,
            "NORMAL": 73
          },
          "indices": 74,
          "material": 3,
          "mode": 4
        }
      ]
    },
    {
      "name": "L vambrace panel",
      "primitives": [
        {
          "attributes": {
            "POSITION": 75,
            "NORMAL": 76
          },
          "indices": 77,
          "material": 2,
          "mode": 4
        }
      ]
    },
    {
      "name": "R Shoulder pauldron",
      "primitives": [
        {
          "attributes": {
            "POSITION": 78,
            "NORMAL": 79
          },
          "indices": 80,
          "material": 2,
          "mode": 4
        }
      ]
    },
    {
      "name": "R Shoulder outer shell",
      "primitives": [
        {
          "attributes": {
            "POSITION": 81,
            "NORMAL": 82
          },
          "indices": 83,
          "material": 1,
          "mode": 4
        }
      ]
    },
    {
      "name": "R Upper arm",
      "primitives": [
        {
          "attributes": {
            "POSITION": 84,
            "NORMAL": 85
          },
          "indices": 86,
          "material": 0,
          "mode": 4
        }
      ]
    },
    {
      "name": "R Elbow guard",
      "primitives": [
        {
          "attributes": {
            "POSITION": 87,
            "NORMAL": 88
          },
          "indices": 89,
          "material": 2,
          "mode": 4
        }
      ]
    },
    {
      "name": "R Forearm bracer",
      "primitives": [
        {
          "attributes": {
            "POSITION": 90,
            "NORMAL": 91
          },
          "indices": 92,
          "material": 1,
          "mode": 4
        }
      ]
    },
    {
      "name": "R Glove",
      "primitives": [
        {
          "attributes": {
            "POSITION": 93,
            "NORMAL": 94
          },
          "indices": 95,
          "material": 5,
          "mode": 4
        }
      ]
    },
    {
      "name": "R Wrist light",
      "primitives": [
        {
          "attributes": {
            "POSITION": 96,
            "NORMAL": 97
          },
          "indices": 98,
          "material": 3,
          "mode": 4
        }
      ]
    },
    {
      "name": "R vambrace panel",
      "primitives": [
        {
          "attributes": {
            "POSITION": 99,
            "NORMAL": 100
          },
          "indices": 101,
          "material": 2,
          "mode": 4
        }
      ]
    },
    {
      "name": "L Thigh undersuit",
      "primitives": [
        {
          "attributes": {
            "POSITION": 102,
            "NORMAL": 103
          },
          "indices": 104,
          "material": 0,
          "mode": 4
        }
      ]
    },
    {
      "name": "L Thigh plate",
      "primitives": [
        {
          "attributes": {
            "POSITION": 105,
            "NORMAL": 106
          },
          "indices": 107,
          "material": 1,
          "mode": 4
        }
      ]
    },
    {
      "name": "L Knee cup",
      "primitives": [
        {
          "attributes": {
            "POSITION": 108,
            "NORMAL": 109
          },
          "indices": 110,
          "material": 2,
          "mode": 4
        }
      ]
    },
    {
      "name": "L Shin greave",
      "primitives": [
        {
          "attributes": {
            "POSITION": 111,
            "NORMAL": 112
          },
          "indices": 113,
          "material": 1,
          "mode": 4
        }
      ]
    },
    {
      "name": "L Boot",
      "primitives": [
        {
          "attributes": {
            "POSITION": 114,
            "NORMAL": 115
          },
          "indices": 116,
          "material": 5,
          "mode": 4
        }
      ]
    },
    {
      "name": "L Boot toe cap",
      "primitives": [
        {
          "attributes": {
            "POSITION": 117,
            "NORMAL": 118
          },
          "indices": 119,
          "material": 2,
          "mode": 4
        }
      ]
    },
    {
      "name": "L thigh ID",
      "primitives": [
        {
          "attributes": {
            "POSITION": 120,
            "NORMAL": 121
          },
          "indices": 122,
          "material": 3,
          "mode": 4
        }
      ]
    },
    {
      "name": "R Thigh undersuit",
      "primitives": [
        {
          "attributes": {
            "POSITION": 123,
            "NORMAL": 124
          },
          "indices": 125,
          "material": 0,
          "mode": 4
        }
      ]
    },
    {
      "name": "R Thigh plate",
      "primitives": [
        {
          "attributes": {
            "POSITION": 126,
            "NORMAL": 127
          },
          "indices": 128,
          "material": 1,
          "mode": 4
        }
      ]
    },
    {
      "name": "R Knee cup",
      "primitives": [
        {
          "attributes": {
            "POSITION": 129,
            "NORMAL": 130
          },
          "indices": 131,
          "material": 2,
          "mode": 4
        }
      ]
    },
    {
      "name": "R Shin greave",
      "primitives": [
        {
          "attributes": {
            "POSITION": 132,
            "NORMAL": 133
          },
          "indices": 134,
          "material": 1,
          "mode": 4
        }
      ]
    },
    {
      "name": "R Boot",
      "primitives": [
        {
          "attributes": {
            "POSITION": 135,
            "NORMAL": 136
          },
          "indices": 137,
          "material": 5,
          "mode": 4
        }
      ]
    },
    {
      "name": "R Boot toe cap",
      "primitives": [
        {
          "attributes": {
            "POSITION": 138,
            "NORMAL": 139
          },
          "indices": 140,
          "material": 2,
          "mode": 4
        }
      ]
    },
    {
      "name": "R thigh ID",
      "primitives": [
        {
          "attributes": {
            "POSITION": 141,
            "NORMAL": 142
          },
          "indices": 143,
          "material": 3,
          "mode": 4
        }
      ]
    },
    {
      "name": "Hip utility pouch",
      "primitives": [
        {
          "attributes": {
            "POSITION": 144,
            "NORMAL": 145
          },
          "indices": 146,
          "material": 2,
          "mode": 4
        }
      ]
    },
    {
      "name": "Pouch amber clasp",
      "primitives": [
        {
          "attributes": {
            "POSITION": 147,
            "NORMAL": 148
          },
          "indices": 149,
          "material": 3,
          "mode": 4
        }
      ]
    },
    {
      "name": "Hip utility pouch",
      "primitives": [
        {
          "attributes": {
            "POSITION": 150,
            "NORMAL": 151
          },
          "indices": 152,
          "material": 2,
          "mode": 4
        }
      ]
    },
    {
      "name": "Pouch amber clasp",
      "primitives": [
        {
          "attributes": {
            "POSITION": 153,
            "NORMAL": 154
          },
          "indices": 155,
          "material": 3,
          "mode": 4
        }
      ]
    },
    {
      "name": "Pack antenna",
      "primitives": [
        {
          "attributes": {
            "POSITION": 156,
            "NORMAL": 157
          },
          "indices": 158,
          "material": 2,
          "mode": 4
        }
      ]
    }
  ],
  "materials": [
    {
      "name": "01 | carbon weave",
      "pbrMetallicRoughness": {
        "baseColorFactor": [
          0.045,
          0.075,
          0.09,
          1.0
        ],
        "metallicFactor": 0.38,
        "roughnessFactor": 0.72
      }
    },
    {
      "name": "02 | deep petrol ceramic",
      "pbrMetallicRoughness": {
        "baseColorFactor": [
          0.075,
          0.19,
          0.22,
          1.0
        ],
        "metallicFactor": 0.62,
        "roughnessFactor": 0.3
      }
    },
    {
      "name": "03 | brushed titanium",
      "pbrMetallicRoughness": {
        "baseColorFactor": [
          0.34,
          0.43,
          0.45,
          1.0
        ],
        "metallicFactor": 0.78,
        "roughnessFactor": 0.24
      }
    },
    {
      "name": "04 | ion amber",
      "pbrMetallicRoughness": {
        "baseColorFactor": [
          0.98,
          0.39,
          0.075,
          1.0
        ],
        "metallicFactor": 0.45,
        "roughnessFactor": 0.28
      },
      "emissiveFactor": [
        1,
        0.18,
        0.025
      ]
    },
    {
      "name": "05 | smoked gold visor",
      "pbrMetallicRoughness": {
        "baseColorFactor": [
          0.36,
          0.19,
          0.07,
          1.0
        ],
        "metallicFactor": 0.72,
        "roughnessFactor": 0.16
      }
    },
    {
      "name": "06 | graphite soft goods",
      "pbrMetallicRoughness": {
        "baseColorFactor": [
          0.075,
          0.085,
          0.09,
          1.0
        ],
        "metallicFactor": 0.08,
        "roughnessFactor": 0.88
      }
    }
  ],
  "buffers": [
    {
      "uri": "Kael_Recon.bin",
      "byteLength": 105888
    }
  ],
  "bufferViews": [
    {
      "buffer": 0,
      "byteOffset": 0,
      "byteLength": 360,
      "target": 34962
    },
    {
      "buffer": 0,
      "byteOffset": 360,
      "byteLength": 360,
      "target": 34962
    },
    {
      "buffer": 0,
      "byteOffset": 720,
      "byteLength": 144,
      "target": 34963
    },
    {
      "buffer": 0,
      "byteOffset": 864,
      "byteLength": 360,
      "target": 34962
    },
    {
      "buffer": 0,
      "byteOffset": 1224,
      "byteLength": 360,
      "target": 34962
    },
    {
      "buffer": 0,
      "byteOffset": 1584,
      "byteLength": 144,
      "target": 34963
    },
    {
      "buffer": 0,
      "byteOffset": 1728,
      "byteLength": 360,
      "target": 34962
    },
    {
      "buffer": 0,
      "byteOffset": 2088,
      "byteLength": 360,
      "target": 34962
    },
    {
      "buffer": 0,
      "byteOffset": 2448,
      "byteLength": 144,
      "target": 34963
    },
    {
      "buffer": 0,
      "byteOffset": 2592,
      "byteLength": 360,
      "target": 34962
    },
    {
      "buffer": 0,
      "byteOffset": 2952,
      "byteLength": 360,
      "target": 34962
    },
    {
      "buffer": 0,
      "byteOffset": 3312,
      "byteLength": 144,
      "target": 34963
    },
    {
      "buffer": 0,
      "byteOffset": 3456,
      "byteLength": 360,
      "target": 34962
    },
    {
      "buffer": 0,
      "byteOffset": 3816,
      "byteLength": 360,
      "target": 34962
    },
    {
      "buffer": 0,
      "byteOffset": 4176,
      "byteLength": 144,
      "target": 34963
    },
    {
      "buffer": 0,
      "byteOffset": 4320,
      "byteLength": 360,
      "target": 34962
    },
    {
      "buffer": 0,
      "byteOffset": 4680,
      "byteLength": 360,
      "target": 34962
    },
    {
      "buffer": 0,
      "byteOffset": 5040,
      "byteLength": 144,
      "target": 34963
    },
    {
      "buffer": 0,
      "byteOffset": 5184,
      "byteLength": 360,
      "target": 34962
    },
    {
      "buffer": 0,
      "byteOffset": 5544,
      "byteLength": 360,
      "target": 34962
    },
    {
      "buffer": 0,
      "byteOffset": 5904,
      "byteLength": 144,
      "target": 34963
    },
    {
      "buffer": 0,
      "byteOffset": 6048,
      "byteLength": 360,
      "target": 34962
    },
    {
      "buffer": 0,
      "byteOffset": 6408,
      "byteLength": 360,
      "target": 34962
    },
    {
      "buffer": 0,
      "byteOffset": 6768,
      "byteLength": 144,
      "target": 34963
    },
    {
      "buffer": 0,
      "byteOffset": 6912,
      "byteLength": 360,
      "target": 34962
    },
    {
      "buffer": 0,
      "byteOffset": 7272,
      "byteLength": 360,
      "target": 34962
    },
    {
      "buffer": 0,
      "byteOffset": 7632,
      "byteLength": 144,
      "target": 34963
    },
    {
      "buffer": 0,
      "byteOffset": 7776,
      "byteLength": 360,
      "target": 34962
    },
    {
      "buffer": 0,
      "byteOffset": 8136,
      "byteLength": 360,
      "target": 34962
    },
    {
      "buffer": 0,
      "byteOffset": 8496,
      "byteLength": 144,
      "target": 34963
    },
    {
      "buffer": 0,
      "byteOffset": 8640,
      "byteLength": 360,
      "target": 34962
    },
    {
      "buffer": 0,
      "byteOffset": 9000,
      "byteLength": 360,
      "target": 34962
    },
    {
      "buffer": 0,
      "byteOffset": 9360,
      "byteLength": 144,
      "target": 34963
    },
    {
      "buffer": 0,
      "byteOffset": 9504,
      "byteLength": 1296,
      "target": 34962
    },
    {
      "buffer": 0,
      "byteOffset": 10800,
      "byteLength": 1296,
      "target": 34962
    },
    {
      "buffer": 0,
      "byteOffset": 12096,
      "byteLength": 1152,
      "target": 34963
    },
    {
      "buffer": 0,
      "byteOffset": 13248,
      "byteLength": 1296,
      "target": 34962
    },
    {
      "buffer": 0,
      "byteOffset": 14544,
      "byteLength": 1296,
      "target": 34962
    },
    {
      "buffer": 0,
      "byteOffset": 15840,
      "byteLength": 1152,
      "target": 34963
    },
    {
      "buffer": 0,
      "byteOffset": 16992,
      "byteLength": 1296,
      "target": 34962
    },
    {
      "buffer": 0,
      "byteOffset": 18288,
      "byteLength": 1296,
      "target": 34962
    },
    {
      "buffer": 0,
      "byteOffset": 19584,
      "byteLength": 1152,
      "target": 34963
    },
    {
      "buffer": 0,
      "byteOffset": 20736,
      "byteLength": 1296,
      "target": 34962
    },
    {
      "buffer": 0,
      "byteOffset": 22032,
      "byteLength": 1296,
      "target": 34962
    },
    {
      "buffer": 0,
      "byteOffset": 23328,
      "byteLength": 1152,
      "target": 34963
    },
    {
      "buffer": 0,
      "byteOffset": 24480,
      "byteLength": 1296,
      "target": 34962
    },
    {
      "buffer": 0,
      "byteOffset": 25776,
      "byteLength": 1296,
      "target": 34962
    },
    {
      "buffer": 0,
      "byteOffset": 27072,
      "byteLength": 1152,
      "target": 34963
    },
    {
      "buffer": 0,
      "byteOffset": 28224,
      "byteLength": 1296,
      "target": 34962
    },
    {
      "buffer": 0,
      "byteOffset": 29520,
      "byteLength": 1296,
      "target": 34962
    },
    {
      "buffer": 0,
      "byteOffset": 30816,
      "byteLength": 1152,
      "target": 34963
    },
    {
      "buffer": 0,
      "byteOffset": 31968,
      "byteLength": 1296,
      "target": 34962
    },
    {
      "buffer": 0,
      "byteOffset": 33264,
      "byteLength": 1296,
      "target": 34962
    },
    {
      "buffer": 0,
      "byteOffset": 34560,
      "byteLength": 1152,
      "target": 34963
    },
    {
      "buffer": 0,
      "byteOffset": 35712,
      "byteLength": 1296,
      "target": 34962
    },
    {
      "buffer": 0,
      "byteOffset": 37008,
      "byteLength": 1296,
      "target": 34962
    },
    {
      "buffer": 0,
      "byteOffset": 38304,
      "byteLength": 1152,
      "target": 34963
    },
    {
      "buffer": 0,
      "byteOffset": 39456,
      "byteLength": 1296,
      "target": 34962
    },
    {
      "buffer": 0,
      "byteOffset": 40752,
      "byteLength": 1296,
      "target": 34962
    },
    {
      "buffer": 0,
      "byteOffset": 42048,
      "byteLength": 1152,
      "target": 34963
    },
    {
      "buffer": 0,
      "byteOffset": 43200,
      "byteLength": 1296,
      "target": 34962
    },
    {
      "buffer": 0,
      "byteOffset": 44496,
      "byteLength": 1296,
      "target": 34962
    },
    {
      "buffer": 0,
      "byteOffset": 45792,
      "byteLength": 1152,
      "target": 34963
    },
    {
      "buffer": 0,
      "byteOffset": 46944,
      "byteLength": 1296,
      "target": 34962
    },
    {
      "buffer": 0,
      "byteOffset": 48240,
      "byteLength": 1296,
      "target": 34962
    },
    {
      "buffer": 0,
      "byteOffset": 49536,
      "byteLength": 1152,
      "target": 34963
    },
    {
      "buffer": 0,
      "byteOffset": 50688,
      "byteLength": 1296,
      "target": 34962
    },
    {
      "buffer": 0,
      "byteOffset": 51984,
      "byteLength": 1296,
      "target": 34962
    },
    {
      "buffer": 0,
      "byteOffset": 53280,
      "byteLength": 1152,
      "target": 34963
    },
    {
      "buffer": 0,
      "byteOffset": 54432,
      "byteLength": 1296,
      "target": 34962
    },
    {
      "buffer": 0,
      "byteOffset": 55728,
      "byteLength": 1296,
      "target": 34962
    },
    {
      "buffer": 0,
      "byteOffset": 57024,
      "byteLength": 1152,
      "target": 34963
    },
    {
      "buffer": 0,
      "byteOffset": 58176,
      "byteLength": 1296,
      "target": 34962
    },
    {
      "buffer": 0,
      "byteOffset": 59472,
      "byteLength": 1296,
      "target": 34962
    },
    {
      "buffer": 0,
      "byteOffset": 60768,
      "byteLength": 1152,
      "target": 34963
    },
    {
      "buffer": 0,
      "byteOffset": 61920,
      "byteLength": 360,
      "target": 34962
    },
    {
      "buffer": 0,
      "byteOffset": 62280,
      "byteLength": 360,
      "target": 34962
    },
    {
      "buffer": 0,
      "byteOffset": 62640,
      "byteLength": 144,
      "target": 34963
    },
    {
      "buffer": 0,
      "byteOffset": 62784,
      "byteLength": 1296,
      "target": 34962
    },
    {
      "buffer": 0,
      "byteOffset": 64080,
      "byteLength": 1296,
      "target": 34962
    },
    {
      "buffer": 0,
      "byteOffset": 65376,
      "byteLength": 1152,
      "target": 34963
    },
    {
      "buffer": 0,
      "byteOffset": 66528,
      "byteLength": 1296,
      "target": 34962
    },
    {
      "buffer": 0,
      "byteOffset": 67824,
      "byteLength": 1296,
      "target": 34962
    },
    {
      "buffer": 0,
      "byteOffset": 69120,
      "byteLength": 1152,
      "target": 34963
    },
    {
      "buffer": 0,
      "byteOffset": 70272,
      "byteLength": 1296,
      "target": 34962
    },
    {
      "buffer": 0,
      "byteOffset": 71568,
      "byteLength": 1296,
      "target": 34962
    },
    {
      "buffer": 0,
      "byteOffset": 72864,
      "byteLength": 1152,
      "target": 34963
    },
    {
      "buffer": 0,
      "byteOffset": 74016,
      "byteLength": 1296,
      "target": 34962
    },
    {
      "buffer": 0,
      "byteOffset": 75312,
      "byteLength": 1296,
      "target": 34962
    },
    {
      "buffer": 0,
      "byteOffset": 76608,
      "byteLength": 1152,
      "target": 34963
    },
    {
      "buffer": 0,
      "byteOffset": 77760,
      "byteLength": 1296,
      "target": 34962
    },
    {
      "buffer": 0,
      "byteOffset": 79056,
      "byteLength": 1296,
      "target": 34962
    },
    {
      "buffer": 0,
      "byteOffset": 80352,
      "byteLength": 1152,
      "target": 34963
    },
    {
      "buffer": 0,
      "byteOffset": 81504,
      "byteLength": 1296,
      "target": 34962
    },
    {
      "buffer": 0,
      "byteOffset": 82800,
      "byteLength": 1296,
      "target": 34962
    },
    {
      "buffer": 0,
      "byteOffset": 84096,
      "byteLength": 1152,
      "target": 34963
    },
    {
      "buffer": 0,
      "byteOffset": 85248,
      "byteLength": 1296,
      "target": 34962
    },
    {
      "buffer": 0,
      "byteOffset": 86544,
      "byteLength": 1296,
      "target": 34962
    },
    {
      "buffer": 0,
      "byteOffset": 87840,
      "byteLength": 1152,
      "target": 34963
    },
    {
      "buffer": 0,
      "byteOffset": 88992,
      "byteLength": 360,
      "target": 34962
    },
    {
      "buffer": 0,
      "byteOffset": 89352,
      "byteLength": 360,
      "target": 34962
    },
    {
      "buffer": 0,
      "byteOffset": 89712,
      "byteLength": 144,
      "target": 34963
    },
    {
      "buffer": 0,
      "byteOffset": 89856,
      "byteLength": 360,
      "target": 34962
    },
    {
      "buffer": 0,
      "byteOffset": 90216,
      "byteLength": 360,
      "target": 34962
    },
    {
      "buffer": 0,
      "byteOffset": 90576,
      "byteLength": 144,
      "target": 34963
    },
    {
      "buffer": 0,
      "byteOffset": 90720,
      "byteLength": 360,
      "target": 34962
    },
    {
      "buffer": 0,
      "byteOffset": 91080,
      "byteLength": 360,
      "target": 34962
    },
    {
      "buffer": 0,
      "byteOffset": 91440,
      "byteLength": 144,
      "target": 34963
    },
    {
      "buffer": 0,
      "byteOffset": 91584,
      "byteLength": 360,
      "target": 34962
    },
    {
      "buffer": 0,
      "byteOffset": 91944,
      "byteLength": 360,
      "target": 34962
    },
    {
      "buffer": 0,
      "byteOffset": 92304,
      "byteLength": 144,
      "target": 34963
    },
    {
      "buffer": 0,
      "byteOffset": 92448,
      "byteLength": 360,
      "target": 34962
    },
    {
      "buffer": 0,
      "byteOffset": 92808,
      "byteLength": 360,
      "target": 34962
    },
    {
      "buffer": 0,
      "byteOffset": 93168,
      "byteLength": 144,
      "target": 34963
    },
    {
      "buffer": 0,
      "byteOffset": 93312,
      "byteLength": 360,
      "target": 34962
    },
    {
      "buffer": 0,
      "byteOffset": 93672,
      "byteLength": 360,
      "target": 34962
    },
    {
      "buffer": 0,
      "byteOffset": 94032,
      "byteLength": 144,
      "target": 34963
    },
    {
      "buffer": 0,
      "byteOffset": 94176,
      "byteLength": 360,
      "target": 34962
    },
    {
      "buffer": 0,
      "byteOffset": 94536,
      "byteLength": 360,
      "target": 34962
    },
    {
      "buffer": 0,
      "byteOffset": 94896,
      "byteLength": 144,
      "target": 34963
    },
    {
      "buffer": 0,
      "byteOffset": 95040,
      "byteLength": 360,
      "target": 34962
    },
    {
      "buffer": 0,
      "byteOffset": 95400,
      "byteLength": 360,
      "target": 34962
    },
    {
      "buffer": 0,
      "byteOffset": 95760,
      "byteLength": 144,
      "target": 34963
    },
    {
      "buffer": 0,
      "byteOffset": 95904,
      "byteLength": 360,
      "target": 34962
    },
    {
      "buffer": 0,
      "byteOffset": 96264,
      "byteLength": 360,
      "target": 34962
    },
    {
      "buffer": 0,
      "byteOffset": 96624,
      "byteLength": 144,
      "target": 34963
    },
    {
      "buffer": 0,
      "byteOffset": 96768,
      "byteLength": 360,
      "target": 34962
    },
    {
      "buffer": 0,
      "byteOffset": 97128,
      "byteLength": 360,
      "target": 34962
    },
    {
      "buffer": 0,
      "byteOffset": 97488,
      "byteLength": 144,
      "target": 34963
    },
    {
      "buffer": 0,
      "byteOffset": 97632,
      "byteLength": 360,
      "target": 34962
    },
    {
      "buffer": 0,
      "byteOffset": 97992,
      "byteLength": 360,
      "target": 34962
    },
    {
      "buffer": 0,
      "byteOffset": 98352,
      "byteLength": 144,
      "target": 34963
    },
    {
      "buffer": 0,
      "byteOffset": 98496,
      "byteLength": 360,
      "target": 34962
    },
    {
      "buffer": 0,
      "byteOffset": 98856,
      "byteLength": 360,
      "target": 34962
    },
    {
      "buffer": 0,
      "byteOffset": 99216,
      "byteLength": 144,
      "target": 34963
    },
    {
      "buffer": 0,
      "byteOffset": 99360,
      "byteLength": 360,
      "target": 34962
    },
    {
      "buffer": 0,
      "byteOffset": 99720,
      "byteLength": 360,
      "target": 34962
    },
    {
      "buffer": 0,
      "byteOffset": 100080,
      "byteLength": 144,
      "target": 34963
    },
    {
      "buffer": 0,
      "byteOffset": 100224,
      "byteLength": 360,
      "target": 34962
    },
    {
      "buffer": 0,
      "byteOffset": 100584,
      "byteLength": 360,
      "target": 34962
    },
    {
      "buffer": 0,
      "byteOffset": 100944,
      "byteLength": 144,
      "target": 34963
    },
    {
      "buffer": 0,
      "byteOffset": 101088,
      "byteLength": 360,
      "target": 34962
    },
    {
      "buffer": 0,
      "byteOffset": 101448,
      "byteLength": 360,
      "target": 34962
    },
    {
      "buffer": 0,
      "byteOffset": 101808,
      "byteLength": 144,
      "target": 34963
    },
    {
      "buffer": 0,
      "byteOffset": 101952,
      "byteLength": 360,
      "target": 34962
    },
    {
      "buffer": 0,
      "byteOffset": 102312,
      "byteLength": 360,
      "target": 34962
    },
    {
      "buffer": 0,
      "byteOffset": 102672,
      "byteLength": 144,
      "target": 34963
    },
    {
      "buffer": 0,
      "byteOffset": 102816,
      "byteLength": 360,
      "target": 34962
    },
    {
      "buffer": 0,
      "byteOffset": 103176,
      "byteLength": 360,
      "target": 34962
    },
    {
      "buffer": 0,
      "byteOffset": 103536,
      "byteLength": 144,
      "target": 34963
    },
    {
      "buffer": 0,
      "byteOffset": 103680,
      "byteLength": 360,
      "target": 34962
    },
    {
      "buffer": 0,
      "byteOffset": 104040,
      "byteLength": 360,
      "target": 34962
    },
    {
      "buffer": 0,
      "byteOffset": 104400,
      "byteLength": 144,
      "target": 34963
    },
    {
      "buffer": 0,
      "byteOffset": 104544,
      "byteLength": 360,
      "target": 34962
    },
    {
      "buffer": 0,
      "byteOffset": 104904,
      "byteLength": 360,
      "target": 34962
    },
    {
      "buffer": 0,
      "byteOffset": 105264,
      "byteLength": 144,
      "target": 34963
    },
    {
      "buffer": 0,
      "byteOffset": 105408,
      "byteLength": 192,
      "target": 34962
    },
    {
      "buffer": 0,
      "byteOffset": 105600,
      "byteLength": 192,
      "target": 34962
    },
    {
      "buffer": 0,
      "byteOffset": 105792,
      "byteLength": 96,
      "target": 34963
    }
  ],
  "accessors": [
    {
      "bufferView": 0,
      "componentType": 5126,
      "count": 30,
      "type": "VEC3",
      "min": [
        -0.19274999999999998,
        0.8122500000000001,
        -0.08775000000000001
      ],
      "max": [
        0.19274999999999998,
        1.38775,
        0.08775000000000001
      ]
    },
    {
      "bufferView": 1,
      "componentType": 5126,
      "count": 30,
      "type": "VEC3"
    },
    {
      "bufferView": 2,
      "componentType": 5123,
      "count": 72,
      "type": "SCALAR"
    },
    {
      "bufferView": 3,
      "componentType": 5126,
      "count": 30,
      "type": "VEC3",
      "min": [
        -0.21050000000000002,
        1.1895,
        -0.1255
      ],
      "max": [
        0.21050000000000002,
        1.5105000000000002,
        0.09550000000000002
      ]
    },
    {
      "bufferView": 4,
      "componentType": 5126,
      "count": 30,
      "type": "VEC3"
    },
    {
      "bufferView": 5,
      "componentType": 5123,
      "count": 72,
      "type": "SCALAR"
    },
    {
      "bufferView": 6,
      "componentType": 5126,
      "count": 30,
      "type": "VEC3",
      "min": [
        -0.14450000000000002,
        0.8155,
        -0.0695
      ],
      "max": [
        0.14450000000000002,
        1.0045,
        0.0995
      ]
    },
    {
      "bufferView": 7,
      "componentType": 5126,
      "count": 30,
      "type": "VEC3"
    },
    {
      "bufferView": 8,
      "componentType": 5123,
      "count": 72,
      "type": "SCALAR"
    },
    {
      "bufferView": 9,
      "componentType": 5126,
      "count": 30,
      "type": "VEC3",
      "min": [
        -0.2115,
        0.6585,
        -0.11149999999999999
      ],
      "max": [
        0.2115,
        0.8015,
        0.11149999999999999
      ]
    },
    {
      "bufferView": 10,
      "componentType": 5126,
      "count": 30,
      "type": "VEC3"
    },
    {
      "bufferView": 11,
      "componentType": 5123,
      "count": 72,
      "type": "SCALAR"
    },
    {
      "bufferView": 12,
      "componentType": 5126,
      "count": 30,
      "type": "VEC3",
      "min": [
        -0.17125,
        0.92375,
        0.10875
      ],
      "max": [
        0.17125,
        1.5162499999999999,
        0.27125
      ]
    },
    {
      "bufferView": 13,
      "componentType": 5126,
      "count": 30,
      "type": "VEC3"
    },
    {
      "bufferView": 14,
      "componentType": 5123,
      "count": 72,
      "type": "SCALAR"
    },
    {
      "bufferView": 15,
      "componentType": 5126,
      "count": 30,
      "type": "VEC3",
      "min": [
        -0.19624999999999998,
        1.0837500000000002,
        0.25875000000000004
      ],
      "max": [
        0.19624999999999998,
        1.61625,
        0.42125
      ]
    },
    {
      "bufferView": 16,
      "componentType": 5126,
      "count": 30,
      "type": "VEC3"
    },
    {
      "bufferView": 17,
      "componentType": 5123,
      "count": 72,
      "type": "SCALAR"
    },
    {
      "bufferView": 18,
      "componentType": 5126,
      "count": 30,
      "type": "VEC3",
      "min": [
        -0.057499999999999996,
        1.6575,
        0.28750000000000003
      ],
      "max": [
        0.057499999999999996,
        1.7225,
        0.3925
      ]
    },
    {
      "bufferView": 19,
      "componentType": 5126,
      "count": 30,
      "type": "VEC3"
    },
    {
      "bufferView": 20,
      "componentType": 5123,
      "count": 72,
      "type": "SCALAR"
    },
    {
      "bufferView": 21,
      "componentType": 5126,
      "count": 30,
      "type": "VEC3",
      "min": [
        -0.15435000000000001,
        1.18815,
        -0.19785
      ],
      "max": [
        -0.12565,
        1.43185,
        -0.18615
      ]
    },
    {
      "bufferView": 22,
      "componentType": 5126,
      "count": 30,
      "type": "VEC3"
    },
    {
      "bufferView": 23,
      "componentType": 5123,
      "count": 72,
      "type": "SCALAR"
    },
    {
      "bufferView": 24,
      "componentType": 5126,
      "count": 30,
      "type": "VEC3",
      "min": [
        -0.014350000000000002,
        1.18815,
        -0.19785
      ],
      "max": [
        0.014350000000000002,
        1.43185,
        -0.18615
      ]
    },
    {
      "bufferView": 25,
      "componentType": 5126,
      "count": 30,
      "type": "VEC3"
    },
    {
      "bufferView": 26,
      "componentType": 5123,
      "count": 72,
      "type": "SCALAR"
    },
    {
      "bufferView": 27,
      "componentType": 5126,
      "count": 30,
      "type": "VEC3",
      "min": [
        0.12565,
        1.18815,
        -0.19785
      ],
      "max": [
        0.15435000000000001,
        1.43185,
        -0.18615
      ]
    },
    {
      "bufferView": 28,
      "componentType": 5126,
      "count": 30,
      "type": "VEC3"
    },
    {
      "bufferView": 29,
      "componentType": 5123,
      "count": 72,
      "type": "SCALAR"
    },
    {
      "bufferView": 30,
      "componentType": 5126,
      "count": 30,
      "type": "VEC3",
      "min": [
        -0.07685,
        1.46065,
        -0.20085
      ],
      "max": [
        0.07685,
        1.49935,
        -0.18915
      ]
    },
    {
      "bufferView": 31,
      "componentType": 5126,
      "count": 30,
      "type": "VEC3"
    },
    {
      "bufferView": 32,
      "componentType": 5123,
      "count": 72,
      "type": "SCALAR"
    },
    {
      "bufferView": 33,
      "componentType": 5126,
      "count": 108,
      "type": "VEC3",
      "min": [
        -0.24,
        1.54,
        -0.23
      ],
      "max": [
        0.24,
        2.12,
        0.23
      ]
    },
    {
      "bufferView": 34,
      "componentType": 5126,
      "count": 108,
      "type": "VEC3"
    },
    {
      "bufferView": 35,
      "componentType": 5123,
      "count": 576,
      "type": "SCALAR"
    },
    {
      "bufferView": 36,
      "componentType": 5126,
      "count": 108,
      "type": "VEC3",
      "min": [
        -0.205,
        1.6500000000000001,
        -0.24
      ],
      "max": [
        0.205,
        1.99,
        -0.10999999999999999
      ]
    },
    {
      "bufferView": 37,
      "componentType": 5126,
      "count": 108,
      "type": "VEC3"
    },
    {
      "bufferView": 38,
      "componentType": 5123,
      "count": 576,
      "type": "SCALAR"
    },
    {
      "bufferView": 39,
      "componentType": 5126,
      "count": 108,
      "type": "VEC3",
      "min": [
        -0.315,
        1.7000000000000002,
        -0.11
      ],
      "max": [
        -0.185,
        1.94,
        0.11
      ]
    },
    {
      "bufferView": 40,
      "componentType": 5126,
      "count": 108,
      "type": "VEC3"
    },
    {
      "bufferView": 41,
      "componentType": 5123,
      "count": 576,
      "type": "SCALAR"
    },
    {
      "bufferView": 42,
      "componentType": 5126,
      "count": 108,
      "type": "VEC3",
      "min": [
        0.185,
        1.7000000000000002,
        -0.11
      ],
      "max": [
        0.315,
        1.94,
        0.11
      ]
    },
    {
      "bufferView": 43,
      "componentType": 5126,
      "count": 108,
      "type": "VEC3"
    },
    {
      "bufferView": 44,
      "componentType": 5123,
      "count": 576,
      "type": "SCALAR"
    },
    {
      "bufferView": 45,
      "componentType": 5126,
      "count": 108,
      "type": "VEC3",
      "min": [
        -0.12000000000000001,
        1.832,
        -0.25
      ],
      "max": [
        -0.05,
        1.868,
        -0.22599999999999998
      ]
    },
    {
      "bufferView": 46,
      "componentType": 5126,
      "count": 108,
      "type": "VEC3"
    },
    {
      "bufferView": 47,
      "componentType": 5123,
      "count": 576,
      "type": "SCALAR"
    },
    {
      "bufferView": 48,
      "componentType": 5126,
      "count": 108,
      "type": "VEC3",
      "min": [
        0.05,
        1.832,
        -0.25
      ],
      "max": [
        0.12000000000000001,
        1.868,
        -0.22599999999999998
      ]
    },
    {
      "bufferView": 49,
      "componentType": 5126,
      "count": 108,
      "type": "VEC3"
    },
    {
      "bufferView": 50,
      "componentType": 5123,
      "count": 576,
      "type": "SCALAR"
    },
    {
      "bufferView": 51,
      "componentType": 5126,
      "count": 108,
      "type": "VEC3",
      "min": [
        -0.045,
        2.065,
        -0.19
      ],
      "max": [
        0.045,
        2.1149999999999998,
        0.19
      ]
    },
    {
      "bufferView": 52,
      "componentType": 5126,
      "count": 108,
      "type": "VEC3"
    },
    {
      "bufferView": 53,
      "componentType": 5123,
      "count": 576,
      "type": "SCALAR"
    },
    {
      "bufferView": 54,
      "componentType": 5126,
      "count": 108,
      "type": "VEC3",
      "min": [
        -0.59,
        1.27,
        -0.24
      ],
      "max": [
        -0.15,
        1.67,
        0.24
      ]
    },
    {
      "bufferView": 55,
      "componentType": 5126,
      "count": 108,
      "type": "VEC3"
    },
    {
      "bufferView": 56,
      "componentType": 5123,
      "count": 576,
      "type": "SCALAR"
    },
    {
      "bufferView": 57,
      "componentType": 5126,
      "count": 108,
      "type": "VEC3",
      "min": [
        -0.59,
        1.3599999999999999,
        -0.25
      ],
      "max": [
        -0.22999999999999998,
        1.62,
        0.21000000000000002
      ]
    },
    {
      "bufferView": 58,
      "componentType": 5126,
      "count": 108,
      "type": "VEC3"
    },
    {
      "bufferView": 59,
      "componentType": 5123,
      "count": 576,
      "type": "SCALAR"
    },
    {
      "bufferView": 60,
      "componentType": 5126,
      "count": 108,
      "type": "VEC3",
      "min": [
        -0.6,
        0.95,
        -0.13
      ],
      "max": [
        -0.36,
        1.47,
        0.13
      ]
    },
    {
      "bufferView": 61,
      "componentType": 5126,
      "count": 108,
      "type": "VEC3"
    },
    {
      "bufferView": 62,
      "componentType": 5123,
      "count": 576,
      "type": "SCALAR"
    },
    {
      "bufferView": 63,
      "componentType": 5126,
      "count": 108,
      "type": "VEC3",
      "min": [
        -0.63,
        0.88,
        -0.16
      ],
      "max": [
        -0.35,
        1.1,
        0.13999999999999999
      ]
    },
    {
      "bufferView": 64,
      "componentType": 5126,
      "count": 108,
      "type": "VEC3"
    },
    {
      "bufferView": 65,
      "componentType": 5123,
      "count": 576,
      "type": "SCALAR"
    },
    {
      "bufferView": 66,
      "componentType": 5126,
      "count": 108,
      "type": "VEC3",
      "min": [
        -0.63,
        0.6000000000000001,
        -0.185
      ],
      "max": [
        -0.35,
        1.02,
        0.11499999999999999
      ]
    },
    {
      "bufferView": 67,
      "componentType": 5126,
      "count": 108,
      "type": "VEC3"
    },
    {
      "bufferView": 68,
      "componentType": 5123,
      "count": 576,
      "type": "SCALAR"
    },
    {
      "bufferView": 69,
      "componentType": 5126,
      "count": 108,
      "type": "VEC3",
      "min": [
        -0.61,
        0.53,
        -0.17500000000000002
      ],
      "max": [
        -0.35,
        0.73,
        0.10500000000000001
      ]
    },
    {
      "bufferView": 70,
      "componentType": 5126,
      "count": 108,
      "type": "VEC3"
    },
    {
      "bufferView": 71,
      "componentType": 5123,
      "count": 576,
      "type": "SCALAR"
    },
    {
      "bufferView": 72,
      "componentType": 5126,
      "count": 108,
      "type": "VEC3",
      "min": [
        -0.535,
        0.83,
        -0.188
      ],
      "max": [
        -0.46499999999999997,
        0.87,
        -0.15200000000000002
      ]
    },
    {
      "bufferView": 73,
      "componentType": 5126,
      "count": 108,
      "type": "VEC3"
    },
    {
      "bufferView": 74,
      "componentType": 5123,
      "count": 576,
      "type": "SCALAR"
    },
    {
      "bufferView": 75,
      "componentType": 5126,
      "count": 30,
      "type": "VEC3",
      "min": [
        -0.5318499999999999,
        0.7431500000000001,
        -0.17285
      ],
      "max": [
        -0.44815,
        0.87685,
        -0.16115000000000002
      ]
    },
    {
      "bufferView": 76,
      "componentType": 5126,
      "count": 30,
      "type": "VEC3"
    },
    {
      "bufferView": 77,
      "componentType": 5123,
      "count": 72,
      "type": "SCALAR"
    },
    {
      "bufferView": 78,
      "componentType": 5126,
      "count": 108,
      "type": "VEC3",
      "min": [
        0.15,
        1.27,
        -0.24
      ],
      "max": [
        0.59,
        1.67,
        0.24
      ]
    },
    {
      "bufferView": 79,
      "componentType": 5126,
      "count": 108,
      "type": "VEC3"
    },
    {
      "bufferView": 80,
      "componentType": 5123,
      "count": 576,
      "type": "SCALAR"
    },
    {
      "bufferView": 81,
      "componentType": 5126,
      "count": 108,
      "type": "VEC3",
      "min": [
        0.22999999999999998,
        1.3599999999999999,
        -0.25
      ],
      "max": [
        0.59,
        1.62,
        0.21000000000000002
      ]
    },
    {
      "bufferView": 82,
      "componentType": 5126,
      "count": 108,
      "type": "VEC3"
    },
    {
      "bufferView": 83,
      "componentType": 5123,
      "count": 576,
      "type": "SCALAR"
    },
    {
      "bufferView": 84,
      "componentType": 5126,
      "count": 108,
      "type": "VEC3",
      "min": [
        0.36,
        0.95,
        -0.13
      ],
      "max": [
        0.6,
        1.47,
        0.13
      ]
    },
    {
      "bufferView": 85,
      "componentType": 5126,
      "count": 108,
      "type": "VEC3"
    },
    {
      "bufferView": 86,
      "componentType": 5123,
      "count": 576,
      "type": "SCALAR"
    },
    {
      "bufferView": 87,
      "componentType": 5126,
      "count": 108,
      "type": "VEC3",
      "min": [
        0.35,
        0.88,
        -0.16
      ],
      "max": [
        0.63,
        1.1,
        0.13999999999999999
      ]
    },
    {
      "bufferView": 88,
      "componentType": 5126,
      "count": 108,
      "type": "VEC3"
    },
    {
      "bufferView": 89,
      "componentType": 5123,
      "count": 576,
      "type": "SCALAR"
    },
    {
      "bufferView": 90,
      "componentType": 5126,
      "count": 108,
      "type": "VEC3",
      "min": [
        0.35,
        0.6000000000000001,
        -0.185
      ],
      "max": [
        0.63,
        1.02,
        0.11499999999999999
      ]
    },
    {
      "bufferView": 91,
      "componentType": 5126,
      "count": 108,
      "type": "VEC3"
    },
    {
      "bufferView": 92,
      "componentType": 5123,
      "count": 576,
      "type": "SCALAR"
    },
    {
      "bufferView": 93,
      "componentType": 5126,
      "count": 108,
      "type": "VEC3",
      "min": [
        0.35,
        0.53,
        -0.17500000000000002
      ],
      "max": [
        0.61,
        0.73,
        0.10500000000000001
      ]
    },
    {
      "bufferView": 94,
      "componentType": 5126,
      "count": 108,
      "type": "VEC3"
    },
    {
      "bufferView": 95,
      "componentType": 5123,
      "count": 576,
      "type": "SCALAR"
    },
    {
      "bufferView": 96,
      "componentType": 5126,
      "count": 108,
      "type": "VEC3",
      "min": [
        0.46499999999999997,
        0.83,
        -0.188
      ],
      "max": [
        0.535,
        0.87,
        -0.15200000000000002
      ]
    },
    {
      "bufferView": 97,
      "componentType": 5126,
      "count": 108,
      "type": "VEC3"
    },
    {
      "bufferView": 98,
      "componentType": 5123,
      "count": 576,
      "type": "SCALAR"
    },
    {
      "bufferView": 99,
      "componentType": 5126,
      "count": 30,
      "type": "VEC3",
      "min": [
        0.44815,
        0.7431500000000001,
        -0.17285
      ],
      "max": [
        0.5318499999999999,
        0.87685,
        -0.16115000000000002
      ]
    },
    {
      "bufferView": 100,
      "componentType": 5126,
      "count": 30,
      "type": "VEC3"
    },
    {
      "bufferView": 101,
      "componentType": 5123,
      "count": 72,
      "type": "SCALAR"
    },
    {
      "bufferView": 102,
      "componentType": 5126,
      "count": 30,
      "type": "VEC3",
      "min": [
        -0.2215,
        0.27849999999999997,
        -0.07650000000000001
      ],
      "max": [
        -0.07849999999999999,
        0.6815,
        0.07650000000000001
      ]
    },
    {
      "bufferView": 103,
      "componentType": 5126,
      "count": 30,
      "type": "VEC3"
    },
    {
      "bufferView": 104,
      "componentType": 5123,
      "count": 72,
      "type": "SCALAR"
    },
    {
      "bufferView": 105,
      "componentType": 5126,
      "count": 30,
      "type": "VEC3",
      "min": [
        -0.22799999999999998,
        0.372,
        -0.14300000000000002
      ],
      "max": [
        -0.072,
        0.628,
        0.023000000000000007
      ]
    },
    {
      "bufferView": 106,
      "componentType": 5126,
      "count": 30,
      "type": "VEC3"
    },
    {
      "bufferView": 107,
      "componentType": 5123,
      "count": 72,
      "type": "SCALAR"
    },
    {
      "bufferView": 108,
      "componentType": 5126,
      "count": 30,
      "type": "VEC3",
      "min": [
        -0.23199999999999998,
        0.203,
        -0.132
      ],
      "max": [
        -0.06799999999999999,
        0.307,
        0.052
      ]
    },
    {
      "bufferView": 109,
      "componentType": 5126,
      "count": 30,
      "type": "VEC3"
    },
    {
      "bufferView": 110,
      "componentType": 5123,
      "count": 72,
      "type": "SCALAR"
    },
    {
      "bufferView": 111,
      "componentType": 5126,
      "count": 30,
      "type": "VEC3",
      "min": [
        -0.215,
        -0.044999999999999984,
        -0.085
      ],
      "max": [
        -0.08499999999999999,
        0.185,
        0.06500000000000002
      ]
    },
    {
      "bufferView": 112,
      "componentType": 5126,
      "count": 30,
      "type": "VEC3"
    },
    {
      "bufferView": 113,
      "componentType": 5123,
      "count": 72,
      "type": "SCALAR"
    },
    {
      "bufferView": 114,
      "componentType": 5126,
      "count": 30,
      "type": "VEC3",
      "min": [
        -0.24525,
        -0.17025,
        -0.24025000000000002
      ],
      "max": [
        -0.05474999999999999,
        -0.05975,
        0.09025000000000001
      ]
    },
    {
      "bufferView": 115,
      "componentType": 5126,
      "count": 30,
      "type": "VEC3"
    },
    {
      "bufferView": 116,
      "componentType": 5123,
      "count": 72,
      "type": "SCALAR"
    },
    {
      "bufferView": 117,
      "componentType": 5126,
      "count": 30,
      "type": "VEC3",
      "min": [
        -0.2375,
        -0.1325,
        -0.2825
      ],
      "max": [
        -0.0625,
        -0.0675,
        -0.1975
      ]
    },
    {
      "bufferView": 118,
      "componentType": 5126,
      "count": 30,
      "type": "VEC3"
    },
    {
      "bufferView": 119,
      "componentType": 5123,
      "count": 72,
      "type": "SCALAR"
    },
    {
      "bufferView": 120,
      "componentType": 5126,
      "count": 30,
      "type": "VEC3",
      "min": [
        -0.164,
        0.4235,
        -0.1995
      ],
      "max": [
        -0.13599999999999998,
        0.5365,
        -0.1865
      ]
    },
    {
      "bufferView": 121,
      "componentType": 5126,
      "count": 30,
      "type": "VEC3"
    },
    {
      "bufferView": 122,
      "componentType": 5123,
      "count": 72,
      "type": "SCALAR"
    },
    {
      "bufferView": 123,
      "componentType": 5126,
      "count": 30,
      "type": "VEC3",
      "min": [
        0.07849999999999999,
        0.27849999999999997,
        -0.07650000000000001
      ],
      "max": [
        0.2215,
        0.6815,
        0.07650000000000001
      ]
    },
    {
      "bufferView": 124,
      "componentType": 5126,
      "count": 30,
      "type": "VEC3"
    },
    {
      "bufferView": 125,
      "componentType": 5123,
      "count": 72,
      "type": "SCALAR"
    },
    {
      "bufferView": 126,
      "componentType": 5126,
      "count": 30,
      "type": "VEC3",
      "min": [
        0.072,
        0.372,
        -0.14300000000000002
      ],
      "max": [
        0.22799999999999998,
        0.628,
        0.023000000000000007
      ]
    },
    {
      "bufferView": 127,
      "componentType": 5126,
      "count": 30,
      "type": "VEC3"
    },
    {
      "bufferView": 128,
      "componentType": 5123,
      "count": 72,
      "type": "SCALAR"
    },
    {
      "bufferView": 129,
      "componentType": 5126,
      "count": 30,
      "type": "VEC3",
      "min": [
        0.06799999999999999,
        0.203,
        -0.132
      ],
      "max": [
        0.23199999999999998,
        0.307,
        0.052
      ]
    },
    {
      "bufferView": 130,
      "componentType": 5126,
      "count": 30,
      "type": "VEC3"
    },
    {
      "bufferView": 131,
      "componentType": 5123,
      "count": 72,
      "type": "SCALAR"
    },
    {
      "bufferView": 132,
      "componentType": 5126,
      "count": 30,
      "type": "VEC3",
      "min": [
        0.08499999999999999,
        -0.044999999999999984,
        -0.085
      ],
      "max": [
        0.215,
        0.185,
        0.06500000000000002
      ]
    },
    {
      "bufferView": 133,
      "componentType": 5126,
      "count": 30,
      "type": "VEC3"
    },
    {
      "bufferView": 134,
      "componentType": 5123,
      "count": 72,
      "type": "SCALAR"
    },
    {
      "bufferView": 135,
      "componentType": 5126,
      "count": 30,
      "type": "VEC3",
      "min": [
        0.05474999999999999,
        -0.17025,
        -0.24025000000000002
      ],
      "max": [
        0.24525,
        -0.05975,
        0.09025000000000001
      ]
    },
    {
      "bufferView": 136,
      "componentType": 5126,
      "count": 30,
      "type": "VEC3"
    },
    {
      "bufferView": 137,
      "componentType": 5123,
      "count": 72,
      "type": "SCALAR"
    },
    {
      "bufferView": 138,
      "componentType": 5126,
      "count": 30,
      "type": "VEC3",
      "min": [
        0.0625,
        -0.1325,
        -0.2825
      ],
      "max": [
        0.2375,
        -0.0675,
        -0.1975
      ]
    },
    {
      "bufferView": 139,
      "componentType": 5126,
      "count": 30,
      "type": "VEC3"
    },
    {
      "bufferView": 140,
      "componentType": 5123,
      "count": 72,
      "type": "SCALAR"
    },
    {
      "bufferView": 141,
      "componentType": 5126,
      "count": 30,
      "type": "VEC3",
      "min": [
        0.13599999999999998,
        0.4235,
        -0.1995
      ],
      "max": [
        0.164,
        0.5365,
        -0.1865
      ]
    },
    {
      "bufferView": 142,
      "componentType": 5126,
      "count": 30,
      "type": "VEC3"
    },
    {
      "bufferView": 143,
      "componentType": 5123,
      "count": 72,
      "type": "SCALAR"
    },
    {
      "bufferView": 144,
      "componentType": 5126,
      "count": 30,
      "type": "VEC3",
      "min": [
        -0.352,
        0.623,
        -0.177
      ],
      "max": [
        -0.248,
        0.7769999999999999,
        -0.043
      ]
    },
    {
      "bufferView": 145,
      "componentType": 5126,
      "count": 30,
      "type": "VEC3"
    },
    {
      "bufferView": 146,
      "componentType": 5123,
      "count": 72,
      "type": "SCALAR"
    },
    {
      "bufferView": 147,
      "componentType": 5126,
      "count": 30,
      "type": "VEC3",
      "min": [
        -0.32487499999999997,
        0.675125,
        -0.218875
      ],
      "max": [
        -0.275125,
        0.7248749999999999,
        -0.209125
      ]
    },
    {
      "bufferView": 148,
      "componentType": 5126,
      "count": 30,
      "type": "VEC3"
    },
    {
      "bufferView": 149,
      "componentType": 5123,
      "count": 72,
      "type": "SCALAR"
    },
    {
      "bufferView": 150,
      "componentType": 5126,
      "count": 30,
      "type": "VEC3",
      "min": [
        0.248,
        0.623,
        -0.177
      ],
      "max": [
        0.352,
        0.7769999999999999,
        -0.043
      ]
    },
    {
      "bufferView": 151,
      "componentType": 5126,
      "count": 30,
      "type": "VEC3"
    },
    {
      "bufferView": 152,
      "componentType": 5123,
      "count": 72,
      "type": "SCALAR"
    },
    {
      "bufferView": 153,
      "componentType": 5126,
      "count": 30,
      "type": "VEC3",
      "min": [
        0.275125,
        0.675125,
        -0.218875
      ],
      "max": [
        0.32487499999999997,
        0.7248749999999999,
        -0.209125
      ]
    },
    {
      "bufferView": 154,
      "componentType": 5126,
      "count": 30,
      "type": "VEC3"
    },
    {
      "bufferView": 155,
      "componentType": 5123,
      "count": 72,
      "type": "SCALAR"
    },
    {
      "bufferView": 156,
      "componentType": 5126,
      "count": 16,
      "type": "VEC3",
      "min": [
        -0.018,
        1.6800000000000002,
        0.412
      ],
      "max": [
        0.018,
        2.02,
        0.448
      ]
    },
    {
      "bufferView": 157,
      "componentType": 5126,
      "count": 16,
      "type": "VEC3"
    },
    {
      "bufferView": 158,
      "componentType": 5123,
      "count": 48,
      "type": "SCALAR"
    }
  ]
}